<svg width="85" height="85" viewBox="0 0 85 85" fill="none" xmlns="http://www.w3.org/2000/svg">
<g clip-path="url(#clip0)">
<path d="M42.4988 4.633C19.0648 4.633 0 23.6988 0 47.1329V65.8668C0 69.3024 2.79417 72.0967 6.22889 72.0967H14.189V66.4716H6.22889C5.89582 66.4716 5.6241 66.1998 5.6241 65.8668V47.1329C5.6241 26.8003 22.1664 10.258 42.499 10.258C62.8327 10.258 79.375 26.8003 79.375 47.1329V65.8668C79.375 66.1998 79.1033 66.4716 78.7702 66.4716H70.809V72.0967H78.7702C82.2058 72.0967 85.0002 69.3026 85.0002 65.8668V47.1329C85 23.6988 65.934 4.633 42.4988 4.633Z" fill="#5D6D80"/>
<path d="M15.6645 79.599H12.6144C11.3625 79.599 10.3477 78.5842 10.3477 77.3323V61.237C10.3477 59.9852 11.3625 58.9703 12.6144 58.9703H15.6645V79.599Z" fill="#D9E5F4"/>
<path d="M25.0069 83.2491H17.9327C16.6808 83.2491 15.666 82.2343 15.666 80.9824V57.5866C15.666 56.3348 16.6808 55.3199 17.9327 55.3199H25.0069C26.2588 55.3199 27.2736 56.3348 27.2736 57.5866V80.9824C27.2734 82.2343 26.2586 83.2491 25.0069 83.2491Z" fill="#F58245"/>
<path d="M69.334 79.599H72.3841C73.636 79.599 74.6508 78.5842 74.6508 77.3323V61.237C74.6508 59.9852 73.636 58.9703 72.3841 58.9703H69.334V79.599Z" fill="#D9E5F4"/>
<path d="M59.9933 83.2491H67.0674C68.3193 83.2491 69.3341 82.2343 69.3341 80.9824V57.5866C69.3341 56.3348 68.3193 55.3199 67.0674 55.3199H59.9933C58.7414 55.3199 57.7266 56.3348 57.7266 57.5866V80.9824C57.7266 82.2343 58.7414 83.2491 59.9933 83.2491Z" fill="#F58245"/>
<path d="M42.4977 1.75067C32.0573 1.75067 22.4301 5.2952 14.7541 11.2431C12.2222 13.2052 11.7778 16.8572 13.7904 19.349L13.7906 19.3492C15.7506 21.776 19.276 22.1463 21.7429 20.2371C27.4879 15.7914 34.6881 13.141 42.4977 13.141C50.3079 13.141 57.5084 15.7914 63.2534 20.2371C65.7203 22.1463 69.2458 21.776 71.2058 19.3492C73.2183 16.8574 72.774 13.2052 70.2421 11.2433C62.5659 5.29539 52.9384 1.75067 42.4977 1.75067Z" fill="#F2C144"/>
<path d="M57.5964 25.912H27.4016C26.2899 25.912 25.3887 26.8132 25.3887 27.925V45.2836C25.3887 46.3953 26.2899 47.2965 27.4016 47.2965H49.2544L52.6622 50.0787C53.3197 50.6154 54.3053 50.1477 54.3053 49.2991V47.2965H57.5964C58.7082 47.2965 59.6094 46.3953 59.6094 45.2836V27.925C59.6094 26.8134 58.7082 25.912 57.5964 25.912Z" fill="#E1E6E9"/>
<path d="M33.4456 39.1204C34.8351 39.1204 35.9615 37.994 35.9615 36.6045C35.9615 35.215 34.8351 34.0886 33.4456 34.0886C32.0561 34.0886 30.9297 35.215 30.9297 36.6045C30.9297 37.994 32.0561 39.1204 33.4456 39.1204Z" fill="#64798A"/>
<path d="M42.4983 39.1204C43.8879 39.1204 45.0143 37.994 45.0143 36.6045C45.0143 35.215 43.8879 34.0886 42.4983 34.0886C41.1088 34.0886 39.9824 35.215 39.9824 36.6045C39.9824 37.994 41.1088 39.1204 42.4983 39.1204Z" fill="#64798A"/>
<path d="M51.5589 39.1204C52.9484 39.1204 54.0748 37.994 54.0748 36.6045C54.0748 35.215 52.9484 34.0886 51.5589 34.0886C50.1694 34.0886 49.043 35.215 49.043 36.6045C49.043 37.994 50.1694 39.1204 51.5589 39.1204Z" fill="#64798A"/>
</g>
<defs>
<clipPath id="clip0">
<rect width="85" height="85" fill="white"/>
</clipPath>
</defs>
</svg>
