<svg width="85" height="87" viewBox="0 0 85 87" fill="none" xmlns="http://www.w3.org/2000/svg">
<path d="M9.79297 30.2213H18.3034V34.3381H9.79297V30.2213Z" fill="#5D6D80"/>
<path d="M80.4451 21.4984V31.2639H76.6992V33.2956H82.4768V21.4984H80.4451Z" fill="#3A556A"/>
<path d="M81.469 23.4909C83.4193 23.4909 85.0004 21.9099 85.0004 19.9595C85.0004 18.0091 83.4193 16.428 81.469 16.428C79.5186 16.428 77.9375 18.0091 77.9375 19.9595C77.9375 21.9099 79.5186 23.4909 81.469 23.4909Z" fill="#F2C144"/>
<path d="M65.2344 30.2213H78.0356V34.3381H65.2344V30.2213Z" fill="#5D6D80"/>
<path d="M61.6106 28.6671V7.86708L53.7435 0H21.6992V28.6671H61.6106Z" fill="#EBF0F3"/>
<path d="M53.7402 7.86708H61.6073L53.7402 0V7.86708Z" fill="#D5D6DB"/>
<path d="M16.7695 28.7782L16.7676 38.6849H66.5388L66.5407 28.779C66.541 27.7817 65.7326 26.9732 64.7354 26.9732H18.5749C17.578 26.9732 16.7698 27.7813 16.7695 28.7782Z" fill="#97A0A7"/>
<path d="M6.73242 27.4278H10.8492V37.1317H6.73242V27.4278Z" fill="#344D5B"/>
<path d="M19.373 31.1525H63.9361V33.4069H19.373V31.1525Z" fill="#64798A"/>
<path d="M29.9707 5.87109H47.9404V7.41386H29.9707V5.87109Z" fill="#D5D6DB"/>
<path d="M27.6777 11.1498H55.6287V12.6925H27.6777V11.1498Z" fill="#D5D6DB"/>
<path d="M27.6777 16.4283H55.6287V17.9711H27.6777V16.4283Z" fill="#D5D6DB"/>
<path d="M27.6777 21.707H55.6287V23.2498H27.6777V21.707Z" fill="#D5D6DB"/>
<path d="M83.2981 79.5635V83.607C83.2981 85.1232 83.0894 86.343 81.5841 86.343H2.73594C1.23062 86.343 0 85.1232 0 83.607V79.5635L12.6359 47.0728H12.6469V40.3152C12.6469 38.81 13.8775 37.5902 15.3829 37.5902H67.9263C69.4316 37.5902 70.6512 38.81 70.6622 40.3152V47.0728H70.6512L83.2981 79.5635Z" fill="#F58245"/>
<path d="M70.6652 47.0672L70.6579 40.3176C70.6563 38.8086 69.4326 37.5862 67.9236 37.5862H15.3847C13.8746 37.5862 12.6504 38.8104 12.6504 40.3205V47.0672H70.655H70.6652Z" fill="#F5671C"/>
<path d="M0.00195312 79.5963V83.6124C0.00195312 85.1224 1.22612 86.3467 2.73625 86.3467H81.5827C83.0928 86.3467 83.3011 85.1224 83.3011 83.6124V79.5963H0.00195312Z" fill="#F5671C"/>
<path d="M32.685 53.9348C33.8798 53.9348 34.8485 52.9661 34.8485 51.7713C34.8485 50.5764 33.8798 49.6078 32.685 49.6078C31.4901 49.6078 30.5215 50.5764 30.5215 51.7713C30.5215 52.9661 31.4901 53.9348 32.685 53.9348Z" fill="#EBF0F3"/>
<path d="M38.9955 53.9348C40.1904 53.9348 41.159 52.9661 41.159 51.7713C41.159 50.5764 40.1904 49.6078 38.9955 49.6078C37.8007 49.6078 36.832 50.5764 36.832 51.7713C36.832 52.9661 37.8007 53.9348 38.9955 53.9348Z" fill="#EBF0F3"/>
<path d="M45.3022 53.9348C46.497 53.9348 47.4657 52.9661 47.4657 51.7713C47.4657 50.5764 46.497 49.6078 45.3022 49.6078C44.1073 49.6078 43.1387 50.5764 43.1387 51.7713C43.1387 52.9661 44.1073 53.9348 45.3022 53.9348Z" fill="#EBF0F3"/>
<path d="M51.6088 53.9348C52.8037 53.9348 53.7723 52.9661 53.7723 51.7713C53.7723 50.5764 52.8037 49.6078 51.6088 49.6078C50.4139 49.6078 49.4453 50.5764 49.4453 51.7713C49.4453 52.9661 50.4139 53.9348 51.6088 53.9348Z" fill="#EBF0F3"/>
<path d="M57.9174 53.9348C59.1123 53.9348 60.0809 52.9661 60.0809 51.7713C60.0809 50.5764 59.1123 49.6078 57.9174 49.6078C56.7225 49.6078 55.7539 50.5764 55.7539 51.7713C55.7539 52.9661 56.7225 53.9348 57.9174 53.9348Z" fill="#EBF0F3"/>
<path d="M64.224 53.9348C65.4189 53.9348 66.3875 52.9661 66.3875 51.7713C66.3875 50.5764 65.4189 49.6078 64.224 49.6078C63.0292 49.6078 62.0605 50.5764 62.0605 51.7713C62.0605 52.9661 63.0292 53.9348 64.224 53.9348Z" fill="#EBF0F3"/>
<path d="M20.0717 53.9348C21.2666 53.9348 22.2352 52.9661 22.2352 51.7713C22.2352 50.5764 21.2666 49.6078 20.0717 49.6078C18.8768 49.6078 17.9082 50.5764 17.9082 51.7713C17.9082 52.9661 18.8768 53.9348 20.0717 53.9348Z" fill="#EBF0F3"/>
<path d="M26.3783 53.9348C27.5732 53.9348 28.5418 52.9661 28.5418 51.7713C28.5418 50.5764 27.5732 49.6078 26.3783 49.6078C25.1835 49.6078 24.2148 50.5764 24.2148 51.7713C24.2148 52.9661 25.1835 53.9348 26.3783 53.9348Z" fill="#EBF0F3"/>
<path d="M28.851 60.456C30.0459 60.456 31.0145 59.4874 31.0145 58.2925C31.0145 57.0977 30.0459 56.129 28.851 56.129C27.6561 56.129 26.6875 57.0977 26.6875 58.2925C26.6875 59.4874 27.6561 60.456 28.851 60.456Z" fill="#EBF0F3"/>
<path d="M35.1576 60.456C36.3525 60.456 37.3211 59.4874 37.3211 58.2925C37.3211 57.0977 36.3525 56.129 35.1576 56.129C33.9628 56.129 32.9941 57.0977 32.9941 58.2925C32.9941 59.4874 33.9628 60.456 35.1576 60.456Z" fill="#EBF0F3"/>
<path d="M41.4682 60.456C42.663 60.456 43.6317 59.4874 43.6317 58.2925C43.6317 57.0977 42.663 56.129 41.4682 56.129C40.2733 56.129 39.3047 57.0977 39.3047 58.2925C39.3047 59.4874 40.2733 60.456 41.4682 60.456Z" fill="#EBF0F3"/>
<path d="M47.7748 60.456C48.9697 60.456 49.9383 59.4874 49.9383 58.2925C49.9383 57.0977 48.9697 56.129 47.7748 56.129C46.58 56.129 45.6113 57.0977 45.6113 58.2925C45.6113 59.4874 46.58 60.456 47.7748 60.456Z" fill="#EBF0F3"/>
<path d="M54.0815 60.456C55.2763 60.456 56.245 59.4874 56.245 58.2925C56.245 57.0977 55.2763 56.129 54.0815 56.129C52.8866 56.129 51.918 57.0977 51.918 58.2925C51.918 59.4874 52.8866 60.456 54.0815 60.456Z" fill="#EBF0F3"/>
<path d="M60.3881 60.456C61.583 60.456 62.5516 59.4874 62.5516 58.2925C62.5516 57.0977 61.583 56.129 60.3881 56.129C59.1932 56.129 58.2246 57.0977 58.2246 58.2925C58.2246 59.4874 59.1932 60.456 60.3881 60.456Z" fill="#EBF0F3"/>
<path d="M22.5443 60.456C23.7392 60.456 24.7078 59.4874 24.7078 58.2925C24.7078 57.0977 23.7392 56.129 22.5443 56.129C21.3495 56.129 20.3809 57.0977 20.3809 58.2925C20.3809 59.4874 21.3495 60.456 22.5443 60.456Z" fill="#EBF0F3"/>
<path d="M32.685 66.9772C33.8798 66.9772 34.8485 66.0086 34.8485 64.8138C34.8485 63.6189 33.8798 62.6503 32.685 62.6503C31.4901 62.6503 30.5215 63.6189 30.5215 64.8138C30.5215 66.0086 31.4901 66.9772 32.685 66.9772Z" fill="#EBF0F3"/>
<path d="M38.9955 66.9772C40.1904 66.9772 41.159 66.0086 41.159 64.8138C41.159 63.6189 40.1904 62.6503 38.9955 62.6503C37.8007 62.6503 36.832 63.6189 36.832 64.8138C36.832 66.0086 37.8007 66.9772 38.9955 66.9772Z" fill="#EBF0F3"/>
<path d="M45.3022 66.9772C46.497 66.9772 47.4657 66.0086 47.4657 64.8138C47.4657 63.6189 46.497 62.6503 45.3022 62.6503C44.1073 62.6503 43.1387 63.6189 43.1387 64.8138C43.1387 66.0086 44.1073 66.9772 45.3022 66.9772Z" fill="#EBF0F3"/>
<path d="M51.6088 66.9772C52.8037 66.9772 53.7723 66.0086 53.7723 64.8138C53.7723 63.6189 52.8037 62.6503 51.6088 62.6503C50.4139 62.6503 49.4453 63.6189 49.4453 64.8138C49.4453 66.0086 50.4139 66.9772 51.6088 66.9772Z" fill="#EBF0F3"/>
<path d="M57.9174 66.9772C59.1123 66.9772 60.0809 66.0086 60.0809 64.8138C60.0809 63.6189 59.1123 62.6503 57.9174 62.6503C56.7225 62.6503 55.7539 63.6189 55.7539 64.8138C55.7539 66.0086 56.7225 66.9772 57.9174 66.9772Z" fill="#EBF0F3"/>
<path d="M64.224 66.9772C65.4189 66.9772 66.3875 66.0086 66.3875 64.8138C66.3875 63.6189 65.4189 62.6503 64.224 62.6503C63.0292 62.6503 62.0605 63.6189 62.0605 64.8138C62.0605 66.0086 63.0292 66.9772 64.224 66.9772Z" fill="#EBF0F3"/>
<path d="M20.0717 66.9772C21.2666 66.9772 22.2352 66.0086 22.2352 64.8138C22.2352 63.6189 21.2666 62.6503 20.0717 62.6503C18.8768 62.6503 17.9082 63.6189 17.9082 64.8138C17.9082 66.0086 18.8768 66.9772 20.0717 66.9772Z" fill="#EBF0F3"/>
<path d="M26.3783 66.9772C27.5732 66.9772 28.5418 66.0086 28.5418 64.8138C28.5418 63.6189 27.5732 62.6503 26.3783 62.6503C25.1835 62.6503 24.2148 63.6189 24.2148 64.8138C24.2148 66.0086 25.1835 66.9772 26.3783 66.9772Z" fill="#EBF0F3"/>
<path d="M60.3881 73.4985C61.583 73.4985 62.5516 72.5298 62.5516 71.335C62.5516 70.1401 61.583 69.1715 60.3881 69.1715C59.1932 69.1715 58.2246 70.1401 58.2246 71.335C58.2246 72.5298 59.1932 73.4985 60.3881 73.4985Z" fill="#EBF0F3"/>
<path d="M22.5443 73.4985C23.7392 73.4985 24.7078 72.5298 24.7078 71.335C24.7078 70.1401 23.7392 69.1715 22.5443 69.1715C21.3495 69.1715 20.3809 70.1401 20.3809 71.335C20.3809 72.5298 21.3495 73.4985 22.5443 73.4985Z" fill="#EBF0F3"/>
<path d="M52.4922 75.6564C53.687 75.6564 54.6555 74.6879 54.6555 73.4931C54.6555 72.2983 53.687 71.3297 52.4922 71.3297H30.8157C29.6209 71.3297 28.6523 72.2983 28.6523 73.4931C28.6523 74.6879 29.6209 75.6564 30.8157 75.6564H52.4922Z" fill="#EBF0F3"/>
</svg>
