<svg width="89" height="89" viewBox="0 0 89 89" fill="none" xmlns="http://www.w3.org/2000/svg">
<g clip-path="url(#clip0)">
<path d="M43.4634 0.695312H4.30344C3.64694 0.695313 3.01734 0.956104 2.55313 1.42031C2.08892 1.88453 1.82813 2.51413 1.82812 3.17062V85.8294C1.82813 86.4859 2.08892 87.1155 2.55313 87.5797C3.01734 88.0439 3.64694 88.3047 4.30344 88.3047H64.4549C64.78 88.3047 65.1019 88.2407 65.4022 88.1163C65.7025 87.9919 65.9754 87.8095 66.2052 87.5797C66.4351 87.3498 66.6174 87.077 66.7418 86.7766C66.8662 86.4763 66.9302 86.1544 66.9302 85.8294V22.5559L43.4634 0.695312Z" fill="#E1E6E9"/>
<path d="M43.4629 20.1084C43.4629 20.7649 43.7237 21.3945 44.1879 21.8587C44.6521 22.323 45.2817 22.5837 45.9382 22.5837H66.9297L43.4629 0.695312V20.1084Z" fill="#BFC4C8"/>
<path d="M56.7714 32.4294H11.9863C11.8019 32.4294 11.6251 32.3561 11.4947 32.2257C11.3643 32.0953 11.291 31.9185 11.291 31.7341C11.291 31.5497 11.3643 31.3728 11.4947 31.2424C11.6251 31.112 11.8019 31.0388 11.9863 31.0388H56.7714C56.9558 31.0388 57.1327 31.112 57.2631 31.2424C57.3935 31.3728 57.4667 31.5497 57.4667 31.7341C57.4667 31.9185 57.3935 32.0953 57.2631 32.2257C57.1327 32.3561 56.9558 32.4294 56.7714 32.4294Z" fill="#BFC4C8"/>
<path d="M56.7714 46.5859H11.9863C11.8019 46.5859 11.6251 46.5127 11.4947 46.3823C11.3643 46.2519 11.291 46.075 11.291 45.8906C11.291 45.7062 11.3643 45.5294 11.4947 45.399C11.6251 45.2686 11.8019 45.1953 11.9863 45.1953H56.7714C56.9558 45.1953 57.1327 45.2686 57.2631 45.399C57.3935 45.5294 57.4667 45.7062 57.4667 45.8906C57.4667 46.075 57.3935 46.2519 57.2631 46.3823C57.1327 46.5127 56.9558 46.5859 56.7714 46.5859Z" fill="#BFC4C8"/>
<path d="M56.7714 60.7216H11.9863C11.8019 60.7216 11.6251 60.6484 11.4947 60.518C11.3643 60.3876 11.291 60.2107 11.291 60.0263C11.291 59.8419 11.3643 59.665 11.4947 59.5346C11.6251 59.4042 11.8019 59.331 11.9863 59.331H56.7714C56.9558 59.331 57.1327 59.4042 57.2631 59.5346C57.3935 59.665 57.4667 59.8419 57.4667 60.0263C57.4667 60.2107 57.3935 60.3876 57.2631 60.518C57.1327 60.6484 56.9558 60.7216 56.7714 60.7216Z" fill="#BFC4C8"/>
<path d="M56.7714 74.8643H11.9863C11.8019 74.8643 11.6251 74.7911 11.4947 74.6607C11.3643 74.5303 11.291 74.3534 11.291 74.169C11.291 73.9846 11.3643 73.8077 11.4947 73.6773C11.6251 73.5469 11.8019 73.4737 11.9863 73.4737H56.7714C56.9558 73.4737 57.1327 73.5469 57.2631 73.6773C57.3935 73.8077 57.4667 73.9846 57.4667 74.169C57.4667 74.3534 57.3935 74.5303 57.2631 74.6607C57.1327 74.7911 56.9558 74.8643 56.7714 74.8643Z" fill="#BFC4C8"/>
<path d="M72.7831 5.85644L76.255 6.84072C76.4076 6.88398 76.5367 6.98608 76.614 7.12455C76.6913 7.26303 76.7104 7.42654 76.6672 7.57912L75.0912 13.1381L70.4621 11.8257L72.0381 6.26674C72.0596 6.19062 72.0961 6.11955 72.1453 6.05762C72.1946 5.9957 72.2556 5.94416 72.3249 5.906C72.3942 5.86784 72.4704 5.84381 72.5491 5.8353C72.6277 5.82679 72.7073 5.83398 72.7831 5.85644Z" fill="#F2C144"/>
<path d="M76.8272 12.7558C76.8614 12.6351 76.8463 12.5058 76.7851 12.3963C76.724 12.2868 76.6219 12.2061 76.5013 12.1719L69.3368 10.1408C69.2055 10.1035 69.0648 10.12 68.9457 10.1865C68.8265 10.253 68.7387 10.3642 68.7015 10.4954L50.7814 73.7044L59.2169 76.0959L76.8272 12.7558Z" fill="#FA9B68"/>
<path d="M76.8285 12.7489C76.8454 12.6895 76.8502 12.6273 76.8428 12.566C76.8354 12.5047 76.8159 12.4454 76.7854 12.3917C76.7549 12.338 76.714 12.2909 76.6651 12.2532C76.6162 12.2154 76.5603 12.1877 76.5007 12.1718L73.9453 11.4473C74.005 11.4633 74.0609 11.4909 74.1097 11.5287C74.1586 11.5665 74.1995 11.6136 74.23 11.6673C74.2605 11.721 74.28 11.7802 74.2874 11.8415C74.2948 11.9029 74.29 11.965 74.2731 12.0245L56.6609 75.3713L59.2163 76.0958L76.8285 12.7489Z" fill="#F58245"/>
<path d="M50.7812 73.7044C50.2814 77.2775 50.7192 82.5907 50.7526 87.7242C50.7622 87.852 50.8109 87.9738 50.8919 88.073C50.973 88.1723 51.0826 88.2443 51.2059 88.2793C51.3292 88.3142 51.4603 88.3105 51.5814 88.2685C51.7025 88.2266 51.8079 88.1484 51.8831 88.0447C54.6125 83.6944 57.7669 79.3996 59.2167 76.0959L50.7812 73.7044Z" fill="#BAC2D3"/>
<path d="M50.6582 83.4911C50.7021 84.8912 50.7404 86.3114 50.7519 87.7239C50.7615 87.8517 50.8101 87.9735 50.8912 88.0728C50.9723 88.172 51.0819 88.244 51.2052 88.279C51.3285 88.3139 51.4596 88.3102 51.5807 88.2682C51.7018 88.2263 51.8071 88.1482 51.8824 88.0444C52.643 86.8146 53.4181 85.6612 54.1903 84.4925L50.6582 83.4911Z" fill="#59697B"/>
<path d="M56.8557 39.6306C56.6783 39.5803 56.5281 39.4616 56.4383 39.3006C56.3484 39.1396 56.3261 38.9495 56.3764 38.772L63.365 14.1213C63.4153 13.9439 63.5341 13.7937 63.6951 13.7038C63.8561 13.6139 64.0462 13.5917 64.2236 13.642L67.5684 14.5902C67.7458 14.6405 67.896 14.7592 67.9859 14.9203C68.0757 15.0813 68.098 15.2714 68.0477 15.4488C67.9974 15.6262 67.8787 15.7764 67.7176 15.8663C67.5566 15.9562 67.3665 15.9784 67.1891 15.9281L64.5133 15.1695L57.7143 39.1513C57.664 39.3288 57.5453 39.4789 57.3843 39.5688C57.2233 39.6587 57.0331 39.6809 56.8557 39.6306Z" fill="#59697B"/>
<path d="M67.541 14.5828L75.6888 16.8927L74.7254 20.291L66.5776 17.981L67.541 14.5828Z" fill="#59697B"/>
</g>
<defs>
<clipPath id="clip0">
<rect width="89" height="89" fill="white"/>
</clipPath>
</defs>
</svg>
